<svg id="Layer_1" data-name="Layer 1" xmlns="http://www.w3.org/2000/svg" viewBox="0 0 50 50"><defs><style>.cls-1{fill:none;}.cls-2{fill:red;}</style></defs><title>Artboard 1</title><path class="cls-1" d="M5,25A20,20,0,0,0,36.67,41.21L8.79,13.33A19.9,19.9,0,0,0,5,25Z"/><path class="cls-1" d="M25,5A19.89,19.89,0,0,0,12.19,9.66L40.34,37.81A20,20,0,0,0,25,5Z"/><path class="cls-2" d="M25,0A24.9,24.9,0,0,0,8.65,6.11,25.22,25.22,0,0,0,5.21,9.75a25,25,0,0,0,35,35,25.22,25.22,0,0,0,3.64-3.44A25,25,0,0,0,25,0Zm0,45A20,20,0,0,1,8.79,13.33L36.67,41.21A19.9,19.9,0,0,1,25,45Zm15.34-7.19L12.19,9.66A20,20,0,0,1,40.34,37.81Z"/></svg>